<svg width="913" height="1073" viewBox="0 0 913 1073" fill="none" xmlns="http://www.w3.org/2000/svg">
<path d="M273.165 579.49C217.816 778.951 391.729 1011.01 485.604 1102.1L981 1078.14V0.0947266C597.811 26.2696 588.497 225.464 622.647 301.327C656.797 377.19 697.6 414.899 668.772 458.82C639.944 502.74 461.211 443.736 387.146 445.067C313.081 446.398 286.47 510.726 273.165 579.49Z" fill="#D6FFFC"/>
<path d="M955.862 716.833C947.941 736.181 920.795 760.27 907.244 764.152C905.595 764.625 865.669 779.659 846.42 749.76L839.583 738.883L828.873 721.832C828.873 721.832 814.055 719.359 796.211 714.676C778.727 710.093 758.32 703.38 746.184 694.775C735.639 687.318 730.394 664.823 727.842 641.571C724.447 610.654 725.801 578.387 725.801 578.387L742.099 530.638C742.099 530.638 725.253 512.435 722.506 506.699C722.506 506.699 685.972 484.619 694.901 457.548C703.813 430.49 715.783 445.624 717.721 451.045C717.721 451.045 735.015 475.52 750.865 479.937C750.865 479.937 761.163 482.862 772.934 495.126C772.934 495.126 788.535 507.106 809.5 506.994C830.459 506.864 849.559 524.266 858.32 548.664L884.224 606.584C884.224 606.584 900.924 633.798 898.695 645.116C898.68 645.152 898.681 645.172 898.681 645.172L913.892 656.44L946.224 680.342C946.224 680.342 963.784 697.485 955.862 716.833Z" fill="#EA733D"/>
<path d="M796.211 714.676C778.726 710.093 758.319 703.38 746.183 694.774C735.638 687.318 730.393 664.823 727.846 641.57C736.348 635.447 784.342 601.464 786.342 614.142C788.515 628.055 777.941 640.793 777.941 640.793C752.158 684.072 796.211 714.676 796.211 714.676Z" fill="#C14F23"/>
<path d="M777.365 563.043C777.365 563.043 781.853 614.106 834.346 624.136C834.346 624.136 786.189 619.617 764.146 575.122L777.365 563.043Z" fill="#C14F23"/>
<path d="M794.097 601.741L754.596 575.928L577.304 385.484C555.469 362.647 537.648 373.925 537.648 373.925L432.254 416.595L409.884 412.404L397.267 432.89C396.421 433.9 395.774 434.973 395.296 436.09L395.257 436.16L395.262 436.167C389.12 450.944 413.274 473.889 413.274 473.889C413.274 473.889 594.455 655.485 621.622 684.62C648.789 713.754 668.241 698.828 668.241 698.828L777.243 627.696C779 625.975 780.266 624.211 781.153 622.439L794.097 601.741Z" fill="#2B2C41"/>
<path d="M426.581 452.524C426.581 452.524 390.297 418.069 417.949 406.408L550.956 352.56C550.956 352.56 568.777 341.282 590.611 364.119L788.408 576.586C788.408 576.586 804.33 592.821 790.555 606.33L681.548 677.467C681.548 677.467 662.096 692.389 634.929 663.254C607.762 634.12 426.581 452.524 426.581 452.524Z" fill="#3B3A59"/>
<path d="M433.101 430.189L577.766 369.006L781.182 584.06L654.462 657.171L433.101 430.189Z" fill="#C4C4C4"/>
<path d="M404.786 332.211L469.807 314.253C484.717 310.139 500.334 317.584 504.691 330.887L514.014 359.353C518.371 372.656 509.813 386.776 494.908 390.894L480.184 394.963L496.867 421.394L440.914 405.805L429.887 408.852C414.977 412.97 399.361 405.521 395.004 392.218L385.676 363.756C381.323 350.453 389.877 336.329 404.786 332.211Z" fill="#4E4E6D"/>
<path d="M409.996 323.609L475.017 305.655C489.927 301.537 505.544 308.981 509.901 322.284L519.224 350.75C523.581 364.053 515.023 378.173 500.118 382.291L485.394 386.36L496.865 421.393L446.124 397.202L435.097 400.249C420.187 404.367 404.571 396.918 400.214 383.615L390.891 355.153C386.533 341.851 395.087 327.727 409.996 323.609Z" fill="#E5E6F9"/>
<path d="M681.451 559.884C677.926 560.866 674.227 559.114 673.187 555.97C672.147 552.825 674.16 549.48 677.684 548.498C681.204 547.516 684.904 549.268 685.948 552.412C686.988 555.552 684.975 558.901 681.451 559.884ZM675.994 543.405C669.316 545.265 665.506 551.604 667.474 557.562C669.446 563.52 676.459 566.84 683.136 564.976C689.814 563.113 693.629 556.777 691.657 550.819C689.684 544.862 682.672 541.542 675.994 543.405Z" fill="#2B2C41"/>
<path d="M682.824 553.282C683.358 554.888 682.33 556.596 680.529 557.1C678.732 557.599 676.839 556.705 676.306 555.098C675.777 553.495 676.805 551.784 678.606 551.284C680.402 550.78 682.296 551.679 682.824 553.282Z" fill="#2B2C41"/>
<path d="M763.242 537.07C759.722 538.052 756.018 536.3 754.978 533.156C753.938 530.012 755.951 526.667 759.475 525.685C762.995 524.703 766.699 526.454 767.739 529.599C768.779 532.739 766.766 536.084 763.242 537.07ZM757.785 520.592C751.107 522.451 747.297 528.791 749.265 534.749C751.242 540.706 758.25 544.026 764.928 542.163C771.605 540.3 775.42 533.964 773.448 528.006C771.475 522.048 764.463 518.729 757.785 520.592Z" fill="#2B2C41"/>
<path d="M764.615 530.468C765.148 532.07 764.12 533.782 762.319 534.285C760.522 534.785 758.63 533.89 758.096 532.284C757.572 530.681 758.595 528.97 760.396 528.47C762.193 527.966 764.086 528.861 764.615 530.468Z" fill="#2B2C41"/>
<path d="M815.668 836.041C808.981 851.12 795.41 863.985 786.2 868.762C785.034 869.358 746.958 889.185 719.572 877.906C711.438 874.581 704.253 868.492 699.249 858.349C699.249 858.349 587 841.414 561.602 823.084C542.569 809.345 541.5 802.515 541.435 794.727C541.424 792.139 541.528 789.439 541.106 786.333C541.106 786.333 520.584 777.471 523.937 752.923C524.251 750.457 524.831 747.825 525.702 745.035C525.702 745.035 503.739 731.314 514.053 702.065C514.053 702.065 518.506 666.985 531.503 663.957L538.7 666.909C538.7 666.909 514.186 628.5 493.351 608.727C472.516 588.955 473.806 585.387 466.056 574.824C458.31 564.257 442.899 544.499 430.806 538.429C418.737 532.338 437.562 513.6 468.994 529.416C468.994 529.416 495.084 535.952 524.855 582.786C524.855 582.786 597.826 657.771 644.188 665.552C644.188 665.552 688.046 670.735 698.93 638.662C698.93 638.662 706.483 624.921 710.298 602.394C714.114 579.867 729.499 556.505 757.881 551.679C757.881 551.679 774.784 549.058 764.691 570.653C764.691 570.653 743.8 604.137 752.916 633.385C762.009 662.616 768.187 662.17 766.793 685.919C766.793 685.919 773.112 746.634 783.216 770.939L793.287 783.518L813.722 809.077C813.722 809.077 822.337 820.963 815.668 836.041Z" fill="#FF9E6E"/>
<path d="M556.364 429.366C555.187 431.938 552.996 435.378 549.081 437.833C547.984 438.522 548.306 440.01 549.563 440.364C552.205 441.11 555.37 442.826 557.64 446.688C558.266 447.753 560.076 447.622 560.543 446.479C562.239 442.33 565.125 440.178 567.629 439.061C568.83 438.529 568.931 437.011 567.746 436.486C563.52 434.619 560.853 431.529 559.324 429.152C558.636 428.084 556.891 428.21 556.364 429.366Z" fill="#FFAC3A"/>
<path d="M802.405 469.151C801.223 471.724 799.037 475.168 795.118 477.619C794.02 478.308 794.343 479.796 795.604 480.154C798.242 480.9 801.411 482.612 803.681 486.474C804.307 487.539 806.117 487.408 806.584 486.265C808.276 482.117 811.162 479.968 813.666 478.851C814.871 478.315 814.968 476.797 813.787 476.272C809.561 474.409 806.894 471.315 805.365 468.938C804.677 467.874 802.932 468 802.405 469.151Z" fill="#FFAC3A"/>
<path d="M629.111 300.9C627.934 303.472 625.743 306.912 621.829 309.367C620.731 310.056 621.054 311.544 622.315 311.898C624.953 312.644 628.118 314.36 630.392 318.222C631.018 319.287 632.824 319.157 633.295 318.013C634.987 313.865 637.873 311.712 640.376 310.595C641.578 310.064 641.679 308.545 640.494 308.021C636.267 306.153 633.605 303.063 632.071 300.686C631.384 299.622 629.639 299.748 629.111 300.9Z" fill="#FFAC3A"/>
<path d="M394.316 430.424C393.139 432.997 390.949 436.441 387.034 438.892C385.936 439.581 386.259 441.069 387.52 441.427C390.158 442.173 393.323 443.885 395.597 447.747C396.223 448.812 398.029 448.681 398.5 447.537C400.192 443.389 403.078 441.241 405.582 440.124C406.782 439.588 406.884 438.07 405.699 437.545C401.473 435.682 398.81 432.588 397.276 430.211C396.589 429.147 394.844 429.273 394.316 430.424Z" fill="#FFAC3A"/>
<path d="M892.486 619.506C891.309 622.078 889.118 625.523 885.203 627.974C884.106 628.663 884.429 630.151 885.689 630.509C888.328 631.255 891.497 632.966 893.766 636.829C894.393 637.893 896.203 637.763 896.67 636.619C898.361 632.471 901.248 630.323 903.751 629.205C904.952 628.67 905.053 627.151 903.869 626.627C899.642 624.763 896.975 621.67 895.446 619.293C894.758 618.229 893.018 618.354 892.486 619.506Z" fill="#FFAC3A"/>
<path d="M491.491 638.38C490.314 640.952 488.123 644.392 484.208 646.847C483.111 647.536 483.434 649.024 484.694 649.382C487.332 650.124 490.497 651.84 492.767 655.703C493.398 656.767 495.203 656.637 495.67 655.493C497.366 651.345 500.252 649.192 502.756 648.079C503.957 647.544 504.058 646.025 502.874 645.5C498.647 643.633 495.98 640.543 494.451 638.166C493.763 637.102 492.019 637.228 491.491 638.38Z" fill="#FFAC3A"/>
<path d="M589.43 611.344C588.253 613.916 586.063 617.36 582.148 619.811C581.05 620.5 581.373 621.988 582.63 622.346C585.272 623.092 588.437 624.804 590.707 628.666C591.333 629.731 593.143 629.6 593.61 628.457C595.306 624.308 598.192 622.16 600.696 621.043C601.897 620.507 601.998 618.989 600.813 618.464C596.587 616.601 593.92 613.507 592.39 611.13C591.703 610.066 589.958 610.192 589.43 611.344Z" fill="#FFAC3A"/>
<path d="M540.189 457.732C539.574 459.079 538.425 460.881 536.378 462.166C535.802 462.527 535.972 463.302 536.632 463.49C538.013 463.879 539.669 464.778 540.856 466.798C541.187 467.357 542.131 467.289 542.378 466.688C543.263 464.519 544.777 463.391 546.084 462.808C546.714 462.527 546.767 461.736 546.145 461.462C543.934 460.484 542.539 458.865 541.737 457.62C541.38 457.063 540.466 457.129 540.189 457.732Z" fill="#FFAC3A"/>
<path d="M649.647 318.519C649.033 319.866 647.884 321.669 645.836 322.954C645.26 323.311 645.43 324.09 646.09 324.278C647.471 324.666 649.127 325.566 650.315 327.586C650.645 328.145 651.59 328.077 651.836 327.476C652.721 325.307 654.235 324.178 655.543 323.596C656.173 323.314 656.225 322.52 655.604 322.25C653.393 321.272 651.997 319.653 651.195 318.408C650.839 317.851 649.925 317.917 649.647 318.519Z" fill="#FFAC3A"/>
<path d="M423.986 444.955C423.371 446.302 422.222 448.105 420.174 449.39C419.598 449.75 419.768 450.525 420.428 450.713C421.81 451.102 423.466 452.002 424.653 454.021C424.983 454.58 425.932 454.512 426.175 453.912C427.06 451.742 428.574 450.614 429.881 450.031C430.511 449.75 430.564 448.959 429.942 448.685C427.731 447.707 426.335 446.088 425.534 444.843C425.177 444.286 424.263 444.352 423.986 444.955Z" fill="#FFAC3A"/>
<path d="M873.596 636.801C872.981 638.148 871.832 639.951 869.784 641.236C869.208 641.596 869.374 642.375 870.038 642.56C871.416 642.952 873.076 643.848 874.263 645.872C874.589 646.427 875.538 646.358 875.785 645.762C876.67 643.589 878.179 642.464 879.495 641.877C880.121 641.6 880.178 640.805 879.556 640.531C877.341 639.553 875.949 637.934 875.143 636.689C874.782 636.133 873.869 636.199 873.596 636.801Z" fill="#FFAC3A"/>
<path d="M694.492 355.52C693.877 356.867 692.728 358.67 690.68 359.955C690.104 360.316 690.27 361.095 690.934 361.279C692.312 361.671 693.972 362.567 695.159 364.591C695.485 365.146 696.434 365.077 696.681 364.481C697.566 362.308 699.075 361.183 700.387 360.597C701.013 360.32 701.07 359.524 700.448 359.25C698.237 358.273 696.841 356.653 696.039 355.409C695.678 354.852 694.765 354.918 694.492 355.52Z" fill="#FFAC3A"/>
<path d="M732.159 409.283C730.982 411.855 728.791 415.3 724.876 417.751C723.775 418.44 724.097 419.928 725.358 420.286C728.001 421.032 731.166 422.744 733.439 426.606C734.066 427.67 735.871 427.54 736.343 426.396C738.034 422.248 740.921 420.099 743.424 418.982C744.625 418.447 744.726 416.928 743.542 416.404C739.315 414.54 736.648 411.446 735.119 409.07C734.431 408.005 732.687 408.131 732.159 409.283Z" fill="#FFAC3A"/>
<path d="M504.144 663.457C503.529 664.804 502.38 666.607 500.332 667.892C499.756 668.253 499.922 669.032 500.586 669.216C501.968 669.608 503.624 670.504 504.811 672.528C505.141 673.083 506.086 673.014 506.333 672.418C507.218 670.245 508.728 669.12 510.039 668.534C510.669 668.256 510.722 667.461 510.1 667.187C507.889 666.21 506.493 664.591 505.692 663.346C505.335 662.789 504.421 662.855 504.144 663.457Z" fill="#FFAC3A"/>
<path d="M570.643 473.79C570.206 474.739 569.401 476.009 567.954 476.916C567.551 477.17 567.669 477.716 568.132 477.848C569.11 478.124 570.276 478.756 571.113 480.183C571.343 480.576 572.012 480.527 572.184 480.106C572.812 478.573 573.875 477.78 574.799 477.367C575.242 477.17 575.281 476.612 574.841 476.419C573.283 475.729 572.3 474.588 571.736 473.711C571.479 473.321 570.836 473.367 570.643 473.79Z" fill="#FFAC3A"/>
<path d="M654.677 288.864C654.245 289.813 653.435 291.083 651.989 291.99C651.585 292.244 651.704 292.79 652.166 292.922C653.144 293.198 654.31 293.83 655.147 295.257C655.378 295.65 656.047 295.602 656.218 295.18C656.846 293.647 657.91 292.854 658.834 292.441C659.277 292.244 659.315 291.686 658.875 291.493C657.318 290.803 656.335 289.662 655.77 288.785C655.514 288.395 654.871 288.441 654.677 288.864Z" fill="#FFAC3A"/>
<path d="M410.302 464.72C409.869 465.668 409.06 466.939 407.613 467.846C407.21 468.099 407.328 468.646 407.79 468.778C408.768 469.054 409.935 469.686 410.772 471.113C411.002 471.506 411.671 471.457 411.843 471.036C412.471 469.503 413.534 468.71 414.458 468.297C414.901 468.099 414.94 467.542 414.5 467.349C412.942 466.659 411.959 465.517 411.395 464.641C411.138 464.25 410.495 464.297 410.302 464.72Z" fill="#FFAC3A"/>
<path d="M871.885 609.946C871.453 610.894 870.648 612.169 869.201 613.072C868.793 613.326 868.916 613.876 869.379 614.008C870.352 614.28 871.523 614.916 872.36 616.339C872.59 616.732 873.259 616.683 873.431 616.262C874.055 614.733 875.122 613.936 876.046 613.527C876.485 613.33 876.528 612.768 876.088 612.575C874.526 611.889 873.543 610.744 872.978 609.867C872.726 609.476 872.083 609.523 871.885 609.946Z" fill="#FFAC3A"/>
<path d="M613.753 606.37C613.32 607.318 612.511 608.589 611.064 609.496C610.661 609.749 610.779 610.299 611.246 610.427C612.219 610.703 613.386 611.335 614.223 612.763C614.458 613.155 615.122 613.107 615.298 612.685C615.922 611.152 616.985 610.359 617.909 609.946C618.352 609.753 618.391 609.191 617.955 608.999C616.393 608.308 615.41 607.167 614.846 606.291C614.593 605.9 613.946 605.947 613.753 606.37Z" fill="#FFAC3A"/>
<path d="M753.919 839.255C753.61 840.217 745.129 865.206 719.574 877.908C711.44 874.579 704.255 868.49 699.251 858.347C699.251 858.347 739.566 859.744 753.919 839.255Z" fill="#EA733D"/>
<path d="M538.701 666.91L564.421 709.247C564.421 709.247 554.543 702.817 546.886 698.115C541.561 694.851 538.247 689.553 537.889 683.738C537.537 678.002 537.473 671.08 538.701 666.91Z" fill="#EA733D"/>
<path d="M549.715 763.904L523.937 752.922C524.251 750.456 524.834 747.824 525.701 745.034L549.715 763.904Z" fill="#EA733D"/>
<path d="M541.433 794.726C541.427 792.141 541.527 789.442 541.105 786.335L565.845 802.673L541.433 794.726Z" fill="#EA733D"/>
<path d="M872.842 694.23C872.87 694.617 874.944 725.008 839.58 738.882L828.874 721.83C828.874 721.83 858.098 725.995 872.842 694.23Z" fill="#C14F23"/>
<path d="M913.893 656.439C909.349 676.236 891.506 678.444 891.506 678.444C910.188 662.641 898.682 645.171 898.682 645.171L913.893 656.439Z" fill="#C14F23"/>
<path d="M781.172 810.627C790.609 792.248 783.213 770.939 783.213 770.939L793.284 783.515C790.089 796.803 781.832 809.603 781.172 810.627Z" fill="#EA733D"/>
<path d="M687.874 597.156L678.429 598.195C677.605 598.29 676.933 598.842 676.762 599.571L674.807 607.933C674.424 609.563 671.947 609.836 671.192 608.332L667.309 600.615C666.97 599.943 666.181 599.547 665.357 599.638L655.917 600.681C654.073 600.885 653.056 598.857 654.429 597.727L661.477 591.917C662.091 591.409 662.275 590.612 661.937 589.936L658.057 582.223C657.298 580.715 659.149 579.192 660.754 579.998L668.989 584.122C669.709 584.479 670.611 584.379 671.225 583.874L678.269 578.065C679.642 576.931 681.808 578.014 681.424 579.643L679.47 588.006C679.298 588.735 679.667 589.467 680.388 589.829L688.623 593.953C690.228 594.758 689.714 596.952 687.874 597.156Z" fill="#FFAC3A"/>
<path d="M588.948 323.203L580.963 318.706C580.267 318.315 579.362 318.373 578.719 318.852L571.358 324.338C569.928 325.409 567.83 324.231 568.302 322.618L570.725 314.352C570.937 313.632 570.61 312.877 569.909 312.486L561.924 307.99C560.367 307.114 561.001 304.943 562.852 304.825L572.336 304.212C573.163 304.156 573.868 303.629 574.079 302.909L576.502 294.643C576.975 293.031 579.46 292.871 580.133 294.409L583.572 302.295C583.873 302.986 584.633 303.415 585.46 303.363L594.944 302.746C596.794 302.628 597.695 304.696 596.261 305.768L588.904 311.254C588.261 311.733 588.028 312.525 588.329 313.212L591.768 321.102C592.437 322.636 590.506 324.078 588.948 323.203Z" fill="#FFAC3A"/>
<path d="M486.736 451.342L482.49 451.814C482.119 451.853 481.82 452.102 481.743 452.431L480.863 456.19C480.691 456.922 479.575 457.042 479.236 456.366L477.492 452.899C477.338 452.595 476.987 452.42 476.616 452.458L472.374 452.93C471.545 453.017 471.084 452.11 471.702 451.601L474.867 448.987C475.145 448.759 475.229 448.402 475.075 448.099L473.335 444.631C472.992 443.955 473.822 443.27 474.546 443.631L478.249 445.485C478.568 445.647 478.978 445.601 479.252 445.373L482.421 442.763C483.039 442.254 484.01 442.739 483.839 443.472L482.959 447.231C482.881 447.555 483.05 447.889 483.374 448.051L487.072 449.905C487.793 450.266 487.565 451.251 486.736 451.342Z" fill="#FFAC3A"/>
<path d="M440.824 359.179C440.883 363.043 437.437 366.267 433.125 366.382C428.812 366.496 425.271 363.457 425.207 359.593C425.152 355.729 428.598 352.505 432.911 352.39C437.223 352.276 440.764 355.315 440.824 359.179Z" fill="#3B3A59"/>
<path d="M469.959 351.368C470.018 355.232 466.568 358.457 462.255 358.571C457.948 358.685 454.406 355.647 454.343 351.783C454.288 347.918 457.734 344.694 462.046 344.58C466.354 344.466 469.9 347.504 469.959 351.368Z" fill="#3B3A59"/>
<path d="M499.092 343.559C499.15 347.419 495.705 350.647 491.393 350.761C487.081 350.876 483.539 347.837 483.48 343.973C483.421 340.109 486.867 336.885 491.178 336.766C495.491 336.656 499.033 339.694 499.092 343.559Z" fill="#3B3A59"/>
<path d="M784.014 447.301C780.412 444.703 775.164 445.062 771.972 448.036C774.552 444.618 773.842 439.967 770.24 437.369C768.979 436.457 767.515 435.913 765.999 435.727C762.977 435.323 759.786 436.353 757.702 438.66C755.98 440.563 755.383 442.943 755.82 445.163L756.254 447.403L757.424 453.383L759.144 462.236L778.532 461.537C778.844 461.531 779.153 461.496 779.463 461.466C779.485 461.457 779.511 461.455 779.524 461.454C779.689 461.43 779.851 461.415 780.01 461.372C780.166 461.341 780.314 461.314 780.461 461.276C780.577 461.248 780.689 461.216 780.805 461.184C780.9 461.154 780.999 461.131 781.09 461.105C781.198 461.077 781.288 461.051 781.387 461.021C781.533 460.971 781.673 460.909 781.815 460.856C781.939 460.811 782.062 460.755 782.182 460.711C782.221 460.697 782.242 460.683 782.28 460.669L782.293 460.668C782.442 460.59 782.586 460.517 782.734 460.439C782.861 460.371 782.996 460.302 783.132 460.226C783.279 460.136 783.435 460.042 783.577 459.942C783.707 459.857 783.82 459.774 783.937 459.695C784.083 459.586 784.224 459.47 784.374 459.353C784.378 459.349 784.39 459.332 784.403 459.323C784.701 459.073 784.981 458.813 785.246 458.522C785.498 458.244 785.732 457.948 785.934 457.65C788.261 454.263 787.51 449.819 784.014 447.301Z" fill="#C22E41"/>
<path d="M618.035 568.585L604.381 574.202L590.726 579.82L592.314 566.49L593.896 553.156L605.968 560.868L618.035 568.585Z" fill="#CB253D"/>
<path d="M521.423 453.876L502.41 436.097L506.731 432.381L525.743 450.156L521.423 453.876Z" fill="#6BA03E"/>
<path d="M501.969 449.884L522.105 432.555L526.182 436.373L506.05 453.698L501.969 449.884Z" fill="#6BA03E"/>
<path d="M787.548 549.568L789.953 532.35L794.07 532.754L791.664 549.972L787.548 549.568Z" fill="#6BA03E"/>
<path d="M781.478 538.373L800.653 540.256L800.133 543.95L780.962 542.07L781.478 538.373Z" fill="#6BA03E"/>
<path d="M758.672 582.541C758.672 582.541 748.526 584.894 745.797 579.172C745.797 579.172 749.025 566.829 760.017 559.712C760.017 559.712 778.514 550.427 758.672 582.541Z" fill="#FFCEB8"/>
<path d="M449.109 553.906C449.109 553.906 458.722 555.932 458.697 547.232C458.697 547.232 450.804 535.365 436.571 535.035C422.333 534.696 430.306 544.019 449.109 553.906Z" fill="#FFCEB8"/>
<path d="M721.841 444.94C744.763 468.839 735.628 484.759 692.819 500.768C678.055 506.29 647.704 515.532 632.26 519.379C583.291 531.574 568.8 522.914 569.408 491.784C569.873 467.998 577.709 422.064 577.709 422.064L665.102 395.207C665.102 395.207 704.326 426.679 721.841 444.94Z" fill="#67C6C7"/>
<path d="M686.371 485.011C671.573 490.561 641.151 499.85 625.669 503.715C595.044 511.36 577.872 510.844 569.433 501.769C572.315 524.639 588.734 530.123 631.981 519.326C647.463 515.461 677.885 506.172 692.684 500.622C731.293 486.144 742.557 471.728 727.689 451.471C727.903 464.106 714.288 474.543 686.371 485.011Z" fill="#2A9B9C"/>
<path d="M620.121 493.763L607.412 462.417C604.023 454.058 613.759 456.662 623.278 453.737L651.896 444.941C661.416 442.015 667.117 434.666 670.506 443.025L683.215 474.371L620.121 493.763Z" fill="#2A9B9C"/>
<path d="M665.237 429.922L673.182 449.519C676.572 457.88 671.601 467.03 662.08 469.956L633.458 478.753C623.937 481.68 613.47 477.275 610.081 468.914L602.136 449.317L665.237 429.922Z" fill="#1B6566"/>
<path d="M663.558 425.736L671.503 445.334C674.893 453.694 669.922 462.844 660.401 465.771L631.779 474.568C622.258 477.494 611.791 473.09 608.402 464.729L600.457 445.132L663.558 425.736Z" fill="#2A9B9C"/>
<path d="M672.589 425.845L647.699 364.459C639.972 345.401 616.114 335.36 594.409 342.031C572.705 348.701 561.376 369.557 569.103 388.615L593.992 450" stroke="#1B6566" stroke-width="5.33333" stroke-miterlimit="10" stroke-linecap="round" stroke-linejoin="round"/>
<path d="M595.309 441.765C596.21 443.987 594.889 446.419 592.36 447.197C589.83 447.974 587.049 446.803 586.148 444.581L583.922 439.088C583.021 436.865 584.342 434.434 586.871 433.656C589.401 432.879 592.182 434.049 593.083 436.272L595.309 441.765Z" fill="white"/>
<path d="M674.401 417.212C675.302 419.434 673.981 421.866 671.452 422.644C668.922 423.421 666.141 422.25 665.24 420.028L663.014 414.535C662.113 412.312 663.434 409.881 665.963 409.103C668.493 408.326 671.274 409.496 672.175 411.719L674.401 417.212Z" fill="white"/>
<path d="M611.853 544.116L577.659 518.456C578.792 514.486 579.268 510.307 578.959 506.016C577.387 484.236 556.394 468.002 532.067 469.757C507.74 471.512 489.295 490.592 490.866 512.372C492.438 534.156 513.431 550.391 537.758 548.636C550.14 547.742 560.994 542.355 568.464 534.409L611.853 544.116Z" fill="#FCB339"/>
<path d="M512.084 516.375L543.58 532.053L552.022 484.343C552.643 480.827 549.575 477.715 545.615 477.843L541.397 477.979C538.064 478.085 535.35 480.485 535.179 483.473L533.392 514.563L518.601 506.499C515.197 504.647 510.703 506.073 509.29 509.458C508.189 512.095 509.371 515.024 512.084 516.375Z" fill="#CB253D"/>
</svg>
